<svg xmlns="http://www.w3.org/2000/svg" xmlns:xlink="http://www.w3.org/1999/xlink" width="1920" height="1080" viewBox="0 0 1920 1080"><defs><style>.a{clip-path:url(#f);}.b{fill:none;stroke:#707070;}.c{fill:#ff4f5a;}.d,.e{fill:#ececec;}.d{font-size:62px;font-family:Silom;}.f{filter:url(#c);}.g{filter:url(#a);}</style><filter id="a" x="-39.453" y="-170.177" width="417.167" height="388.998" filterUnits="userSpaceOnUse"><feOffset dy="3" input="SourceAlpha"/><feGaussianBlur stdDeviation="3" result="b"/><feFlood flood-opacity="0.161"/><feComposite operator="in" in2="b"/><feComposite in="SourceGraphic"/></filter><filter id="c" x="505.781" y="-6" width="1470.92" height="357.591" filterUnits="userSpaceOnUse"><feOffset dy="3" input="SourceAlpha"/><feGaussianBlur stdDeviation="3" result="d"/><feFlood flood-opacity="0.161"/><feComposite operator="in" in2="d"/><feComposite in="SourceGraphic"/></filter><clipPath id="f"><rect width="1920" height="1080"/></clipPath></defs><g id="e" class="a"><rect class="e" width="1920" height="1080"/><path class="b" d="M4535.24,0" transform="translate(-3980)"/><g class="g" transform="matrix(1, 0, 0, 1, 0, 0)"><path class="c" d="M4208.058-164.177s213.917,210.924,114.133,310.9-132.13-46.921-198.62,35.936-174.024-73.975-174.024-73.975l8.291-272.86Z" transform="translate(-3980)"/></g><text class="d" transform="translate(25 69)"><tspan x="0" y="0">UPFY</tspan></text><g class="f" transform="matrix(1, 0, 0, 1, 0, 0)"><path class="c" d="M6484.781,0s325.732,223.818,728.685,169.867,674.447,169.724,674.447,169.724H7937.7V0Z" transform="translate(-5970)"/></g></g></svg>